<svg width="169" height="144" viewBox="0 0 169 144" fill="none" xmlns="http://www.w3.org/2000/svg">
<path d="M87.1803 114L80.1803 135" stroke="#FFA960" stroke-width="7" stroke-linecap="round"/>
<path d="M88.1803 19L81.1803 40" stroke="#FFA960" stroke-width="7" stroke-linecap="round"/>
<path d="M79.5007 100.107L80.6075 96.7864L73.9667 94.5728L72.8599 97.8932L79.5007 100.107ZM63.8599 124.893C63.2486 126.727 64.2397 128.709 66.0735 129.32C67.9073 129.932 69.8894 128.941 70.5007 127.107L63.8599 124.893ZM72.8599 97.8932L63.8599 124.893L70.5007 127.107L79.5007 100.107L72.8599 97.8932Z" fill="#FFA960"/>
<path d="M64.478 96.1725L65.6506 92.8748L59.055 90.5297L57.8825 93.8275L64.478 96.1725ZM41.8825 138.827C41.2349 140.649 42.1864 142.65 44.0077 143.298C45.829 143.945 47.8304 142.994 48.478 141.173L41.8825 138.827ZM57.8825 93.8275L41.8825 138.827L48.478 141.173L64.478 96.1725L57.8825 93.8275Z" fill="#FFA960"/>
<path d="M157.964 105.247C157.457 106.722 155.92 108.298 151.765 109.254C147.64 110.203 141.791 110.299 134.411 109.485C119.719 107.865 100.145 102.783 78.847 95.4612C57.537 88.1356 38.9492 80.1862 26.3544 72.4693C20.0285 68.5933 15.4807 64.9346 12.8219 61.6449C10.1604 58.3521 9.89162 56.1159 10.436 54.5324C11.1525 52.4482 12.9549 50.7444 16.9516 49.7609C21.0437 48.754 26.821 48.6979 34.1578 49.6196C48.7691 51.455 68.1857 56.973 89.5528 64.3182C110.912 71.6609 129.603 79.2937 142.247 86.8529C148.597 90.6487 153.122 94.253 155.736 97.5606C158.297 100.8 158.659 103.225 157.964 105.247Z" stroke="#FFA960" stroke-width="8"/>
<path d="M113.486 5.14982C114.121 3.32411 113.156 1.32929 111.33 0.694261C109.504 0.0592321 107.51 1.02447 106.875 2.85018L113.486 5.14982ZM82.8745 71.8502L81.7247 75.1559L88.3362 77.4556L89.486 74.1498L82.8745 71.8502ZM106.875 2.85018L82.8745 71.8502L89.486 74.1498L113.486 5.14982L106.875 2.85018Z" fill="#FFA960"/>
<path d="M116.501 41.1068C117.112 39.273 116.121 37.2909 114.287 36.6796C112.453 36.0683 110.471 37.0594 109.86 38.8932L116.501 41.1068ZM96.8599 77.8932L95.7531 81.2136L102.394 83.4272L103.501 80.1068L96.8599 77.8932ZM109.86 38.8932L96.8599 77.8932L103.501 80.1068L116.501 41.1068L109.86 38.8932Z" fill="#FFA960"/>
<path d="M120.732 91.229C119.68 97.4999 101.736 91.7246 81.6803 84.9999C61.6245 78.2752 45.6803 72.4999 47.1803 66.4999C48.2567 59.6232 66.6803 67.5 86.6803 73.5C106.68 81 124.68 86.4999 120.732 91.229Z" fill="#FFA960"/>
</svg>
